<svg width="31" height="31" viewBox="0 0 31 31" fill="none" xmlns="http://www.w3.org/2000/svg">
<path d="M20.2168 15.2149C21.8733 15.9979 23.2858 17.2166 24.3029 18.7406C25.3201 20.2646 25.9038 22.0365 25.9913 23.8667C26.0029 24.0343 25.9808 24.2026 25.9265 24.3617C25.8721 24.5207 25.7865 24.6672 25.6747 24.7927C25.5629 24.9182 25.4272 25.0201 25.2755 25.0925C25.1238 25.1648 24.9592 25.2061 24.7913 25.2139C24.6234 25.2218 24.4557 25.196 24.2979 25.1381C24.1401 25.0803 23.9955 24.9915 23.8725 24.877C23.7495 24.7624 23.6506 24.6245 23.5816 24.4712C23.5127 24.318 23.475 24.1525 23.4709 23.9845C23.3791 22.0403 22.5423 20.2061 21.1339 18.8627C19.7256 17.5193 17.8541 16.7697 15.9077 16.7697C13.9614 16.7697 12.0898 17.5193 10.6815 18.8627C9.2732 20.2061 8.43632 22.0403 8.3446 23.9845C8.32193 24.3135 8.17131 24.6207 7.925 24.8401C7.67868 25.0595 7.35625 25.1737 7.02675 25.1583C6.69725 25.1429 6.38688 24.9991 6.1621 24.7577C5.93731 24.5163 5.81599 24.1964 5.82411 23.8667C5.91137 22.0366 6.49467 20.2648 7.51156 18.7408C8.52845 17.2168 9.94066 15.998 11.597 15.2149C10.5353 14.3294 9.77219 13.1383 9.41143 11.8037C9.05067 10.469 9.10978 9.05567 9.58072 7.75583C10.0517 6.45599 10.9116 5.33277 12.0435 4.53896C13.1754 3.74515 14.5244 3.31927 15.9069 3.31927C17.2894 3.31927 18.6384 3.74515 19.7703 4.53896C20.9022 5.33277 21.7621 6.45599 22.2331 7.75583C22.704 9.05567 22.7631 10.469 22.4023 11.8037C22.0416 13.1383 21.2785 14.3294 20.2168 15.2149ZM20.1141 10.0444C20.1141 8.92879 19.671 7.85887 18.8821 7.07002C18.0933 6.28116 17.0233 5.83799 15.9077 5.83799C14.7921 5.83799 13.7222 6.28116 12.9333 7.07002C12.1445 7.85887 11.7013 8.92879 11.7013 10.0444C11.7013 11.16 12.1445 12.2299 12.9333 13.0188C13.7222 13.8076 14.7921 14.2508 15.9077 14.2508C17.0233 14.2508 18.0933 13.8076 18.8821 13.0188C19.671 12.2299 20.1141 11.16 20.1141 10.0444Z" fill="#9FA6AD"/>
</svg>
